<svg xmlns="http://www.w3.org/2000/svg" width="432" height="720"><style>line, path, circle, rect, polygon{stroke:black;stroke-width:2;stroke-opacity:1;fill-opacity:1;stroke-linecap:round;stroke-linejoin:miter;}text{font-family:Iosevka Fixed, monospace;font-size:14px;}rect.backdrop{stroke:none;fill:white;}.broken{stroke-dasharray:8;}.filled{fill:black;}.bg_filled{fill:white;}.nofill{fill:white;}.end_marked_arrow{marker-end:url(#arrow);}.start_marked_arrow{marker-start:url(#arrow);}.end_marked_diamond{marker-end:url(#diamond);}.start_marked_diamond{marker-start:url(#diamond);}.end_marked_circle{marker-end:url(#circle);}.start_marked_circle{marker-start:url(#circle);}.end_marked_open_circle{marker-end:url(#open_circle);}.start_marked_open_circle{marker-start:url(#open_circle);}.end_marked_big_open_circle{marker-end:url(#big_open_circle);}.start_marked_big_open_circle{marker-start:url(#big_open_circle);}<!--separator-->.r{ 
    fill: #a9cce3;
 }</style><defs><marker id="arrow" viewBox="-2 -2 8 8" refX="4" refY="2" markerWidth="7" markerHeight="7" orient="auto-start-reverse"><polygon points="0,0 0,4 4,2 0,0"></polygon></marker><marker id="diamond" viewBox="-2 -2 8 8" refX="4" refY="2" markerWidth="7" markerHeight="7" orient="auto-start-reverse"><polygon points="0,2 2,0 4,2 2,4 0,2"></polygon></marker><marker id="circle" viewBox="0 0 8 8" refX="4" refY="4" markerWidth="7" markerHeight="7" orient="auto-start-reverse"><circle cx="4" cy="4" r="2" class="filled"></circle></marker><marker id="open_circle" viewBox="0 0 8 8" refX="4" refY="4" markerWidth="7" markerHeight="7" orient="auto-start-reverse"><circle cx="4" cy="4" r="2" class="bg_filled"></circle></marker><marker id="big_open_circle" viewBox="0 0 8 8" refX="4" refY="4" markerWidth="7" markerHeight="7" orient="auto-start-reverse"><circle cx="4" cy="4" r="3" class="bg_filled"></circle></marker></defs><rect class="backdrop" x="0" y="0" width="432" height="720"></rect><rect x="4" y="232" width="56" height="32" class="solid nofill r" rx="4"></rect><text x="50" y="252" >0</text><text x="122" y="28" >Anatomy</text><text x="186" y="28" >of</text><text x="210" y="28" >a</text><text x="226" y="28" >Machine</text><line x1="120" y1="38" x2="280" y2="38" class="solid"></line><line x1="120" y1="42" x2="280" y2="42" class="solid"></line><text x="154" y="76" >Turing</text><text x="210" y="76" >Tape</text><text x="18" y="140" >0</text><text x="50" y="140" >0</text><text x="82" y="140" >0</text><text x="114" y="140" >0</text><text x="146" y="140" >0</text><text x="178" y="140" >0</text><text x="210" y="140" >0</text><text x="242" y="140" >0</text><text x="274" y="140" >0</text><text x="306" y="140" >0</text><text x="338" y="140" >0</text><text x="370" y="140" >0</text><text x="10" y="172" >#0</text><text x="42" y="172" >#1</text><text x="74" y="172" >#2</text><text x="106" y="172" >#3</text><text x="138" y="172" >#4</text><text x="170" y="172" >#5</text><text x="202" y="172" >#6</text><text x="234" y="172" >#7</text><text x="266" y="172" >#8</text><text x="298" y="172" >#9</text><text x="330" y="172" >#10</text><text x="362" y="172" >#11</text><text x="402" y="140" >...</text><text x="402" y="172" >...</text><text x="2" y="220" >register</text><text x="146" y="220" >deref</text><text x="194" y="220" >stack</text><text x="114" y="348" >A</text><text x="130" y="348" >Machine</text><text x="194" y="348" >as</text><text x="218" y="348" >a</text><text x="234" y="348" >Blackbox</text><line x1="112" y1="358" x2="296" y2="358" class="solid"></line><line x1="112" y1="362" x2="296" y2="362" class="solid"></line><text x="250" y="396" >user</text><text x="290" y="396" >input</text><line x1="284" y1="400" x2="284" y2="420" class="solid"></line><circle cx="284" cy="424" r="3" class="nofill"></circle><text x="202" y="476" >GetChar</text><text x="266" y="476" >GetInt</text><text x="322" y="476" >GetFloat</text><text x="202" y="620" >PutChar</text><text x="266" y="620" >PutInt</text><text x="322" y="620" >PutFloat</text><circle cx="284" cy="664" r="3" class="nofill"></circle><line x1="284" y1="668" x2="284" y2="688" class="solid"></line><text x="234" y="700" >output</text><text x="290" y="700" >to</text><text x="18" y="460" >interface</text><text x="98" y="460" >input</text><polygon points="288,516 280,520 288,524" class="filled"></polygon><text x="154" y="540" >program</text><text x="218" y="540" >churning</text><polygon points="144,548 152,552 144,556" class="filled"></polygon><text x="170" y="556" >and</text><text x="202" y="556" >computing</text><text x="18" y="636" >interface</text><text x="98" y="636" >output</text><text x="314" y="700" >user</text><g><line x1="20" y1="80" x2="20" y2="100" class="solid"></line><polygon points="16,100 24,100 20,112" class="filled"></polygon></g><g><line x1="4" y1="120" x2="388" y2="120" class="solid"></line><line x1="4" y1="120" x2="4" y2="152" class="solid"></line><line x1="36" y1="120" x2="36" y2="152" class="solid"></line><line x1="68" y1="120" x2="68" y2="152" class="solid"></line><line x1="100" y1="120" x2="100" y2="152" class="solid"></line><line x1="132" y1="120" x2="132" y2="152" class="solid"></line><line x1="164" y1="120" x2="164" y2="152" class="solid"></line><line x1="196" y1="120" x2="196" y2="152" class="solid"></line><line x1="228" y1="120" x2="228" y2="152" class="solid"></line><line x1="260" y1="120" x2="260" y2="152" class="solid"></line><line x1="292" y1="120" x2="292" y2="152" class="solid"></line><line x1="324" y1="120" x2="324" y2="152" class="solid"></line><line x1="356" y1="120" x2="356" y2="152" class="solid"></line><line x1="388" y1="120" x2="388" y2="152" class="solid"></line><line x1="4" y1="152" x2="388" y2="152" class="solid"></line></g><g><path d="M 152,232 A 4,4 0,0,0 148,236" class="nofill"></path><line x1="148" y1="236" x2="148" y2="260" class="solid"></line><line x1="152" y1="232" x2="160" y2="232" class="solid"></line><path d="M 148,260 A 4,4 0,0,0 152,264" class="nofill"></path><line x1="152" y1="264" x2="160" y2="264" class="solid"></line></g><g><path d="M 224,424 A 4,4 0,0,0 220,428" class="nofill"></path><line x1="220" y1="428" x2="220" y2="464" class="broken"></line><line x1="224" y1="424" x2="280" y2="424" class="broken"></line></g><g><line x1="288" y1="424" x2="344" y2="424" class="broken"></line><path d="M 344,424 A 4,4 0,0,1 348,428" class="nofill"></path><line x1="348" y1="428" x2="348" y2="464" class="broken"></line></g><g><line x1="96" y1="480" x2="88" y2="496" class="solid"></line><line x1="92" y1="488" x2="228" y2="488" class="solid"></line><line x1="224" y1="480" x2="232" y2="496" class="solid"></line></g><g><line x1="248" y1="480" x2="240" y2="496" class="solid"></line><line x1="244" y1="488" x2="276" y2="488" class="solid"></line><line x1="272" y1="480" x2="280" y2="496" class="solid"></line></g><g><line x1="296" y1="480" x2="288" y2="496" class="solid"></line><line x1="292" y1="488" x2="324" y2="488" class="solid"></line><line x1="320" y1="480" x2="328" y2="496" class="solid"></line></g><g><line x1="344" y1="480" x2="336" y2="496" class="solid"></line><line x1="340" y1="488" x2="360" y2="488" class="solid"></line><path d="M 360,488 A 4,4 0,0,1 364,492" class="nofill"></path><line x1="364" y1="492" x2="364" y2="596" class="solid"></line><line x1="336" y1="592" x2="344" y2="608" class="solid"></line><line x1="340" y1="600" x2="360" y2="600" class="solid"></line><path d="M 364,596 A 4,4 0,0,1 360,600" class="nofill"></path></g><g><line x1="88" y1="592" x2="96" y2="608" class="solid"></line><line x1="92" y1="600" x2="228" y2="600" class="solid"></line><line x1="232" y1="592" x2="224" y2="608" class="solid"></line></g><g><line x1="240" y1="592" x2="248" y2="608" class="solid"></line><line x1="244" y1="600" x2="276" y2="600" class="solid"></line><line x1="280" y1="592" x2="272" y2="608" class="solid"></line></g><g><line x1="288" y1="592" x2="296" y2="608" class="solid"></line><line x1="292" y1="600" x2="324" y2="600" class="solid"></line><line x1="328" y1="592" x2="320" y2="608" class="solid"></line></g><g><line x1="220" y1="624" x2="220" y2="660" class="broken"></line><path d="M 220,660 A 4,4 0,0,0 224,664" class="nofill"></path><line x1="224" y1="664" x2="280" y2="664" class="broken"></line></g><g><line x1="348" y1="624" x2="348" y2="660" class="broken"></line><line x1="288" y1="664" x2="344" y2="664" class="broken"></line><path d="M 348,660 A 4,4 0,0,1 344,664" class="nofill"></path></g><g><path d="M 56,488 A 4,4 0,0,0 52,492" class="nofill"></path><line x1="52" y1="492" x2="52" y2="596" class="solid"></line><line x1="56" y1="488" x2="76" y2="488" class="solid"></line><line x1="72" y1="480" x2="80" y2="496" class="solid"></line><path d="M 52,596 A 4,4 0,0,0 56,600" class="nofill"></path><line x1="56" y1="600" x2="76" y2="600" class="solid"></line><line x1="80" y1="592" x2="72" y2="608" class="solid"></line></g><g><path d="M 144,520 A 8,8 0,0,0 138,524" class="nofill"></path><line x1="138" y1="524" x2="136" y2="528" class="solid"></line><path d="M 136,528 A 16,16 0,0,0 136,544" class="nofill"></path><line x1="136" y1="544" x2="138" y2="548" class="solid"></line><path d="M 138,548 A 8,8 0,0,0 144,552" class="nofill"></path></g><g><path d="M 288,520 A 8,8 0,0,1 294,524" class="nofill"></path><line x1="294" y1="524" x2="296" y2="528" class="solid"></line><path d="M 296,528 A 16,16 0,0,1 296,544" class="nofill"></path><line x1="296" y1="544" x2="294" y2="548" class="solid"></line><path d="M 294,548 A 8,8 0,0,1 288,552" class="nofill"></path></g></svg>