<svg xmlns="http://www.w3.org/2000/svg" width="448" height="528" class="svgbob"><style>.svgbob line, .svgbob path, .svgbob circle, .svgbob rect, .svgbob polygon {
    stroke: black;
    stroke-width: 2;
    stroke-opacity: 1;
    fill-opacity: 1;
    stroke-linecap: round;
    stroke-linejoin: miter;
}
.svgbob text {
    white-space: pre;
    fill: black;
    font-family: Iosevka Fixed, monospace;
    font-size: 14px;
}
.svgbob rect.backdrop {
    stroke: none;
    fill: white;
}
.svgbob .broken {
    stroke-dasharray: 8;
}
.svgbob .filled {
    fill: black;
}
.svgbob .bg_filled {
    fill: white;
}
.svgbob .nofill {
    fill: white;
}
.svgbob .end_marked_arrow {
    marker-end: url(#arrow);
}
.svgbob .start_marked_arrow {
    marker-start: url(#arrow);
}
.svgbob .end_marked_diamond {
    marker-end: url(#diamond);
}
.svgbob .start_marked_diamond {
    marker-start: url(#diamond);
}
.svgbob .end_marked_circle {
    marker-end: url(#circle);
}
.svgbob .start_marked_circle {
    marker-start: url(#circle);
}
.svgbob .end_marked_open_circle {
    marker-end: url(#open_circle);
}
.svgbob .start_marked_open_circle {
    marker-start: url(#open_circle);
}
.svgbob .end_marked_big_open_circle {
    marker-end: url(#big_open_circle);
}
.svgbob .start_marked_big_open_circle {
    marker-start: url(#big_open_circle);
}<!--separator-->.r{ 
    fill: #a9cce3;
 }</style><defs><marker id="arrow" viewBox="-2 -2 8 8" refX="4" refY="2" markerWidth="7" markerHeight="7" orient="auto-start-reverse"><polygon points="0,0 0,4 4,2 0,0"></polygon></marker><marker id="diamond" viewBox="-2 -2 8 8" refX="4" refY="2" markerWidth="7" markerHeight="7" orient="auto-start-reverse"><polygon points="0,2 2,0 4,2 2,4 0,2"></polygon></marker><marker id="circle" viewBox="0 0 8 8" refX="4" refY="4" markerWidth="7" markerHeight="7" orient="auto-start-reverse"><circle cx="4" cy="4" r="2" class="filled"></circle></marker><marker id="open_circle" viewBox="0 0 8 8" refX="4" refY="4" markerWidth="7" markerHeight="7" orient="auto-start-reverse"><circle cx="4" cy="4" r="2" class="bg_filled"></circle></marker><marker id="big_open_circle" viewBox="0 0 8 8" refX="4" refY="4" markerWidth="7" markerHeight="7" orient="auto-start-reverse"><circle cx="4" cy="4" r="3" class="bg_filled"></circle></marker></defs><rect class="backdrop" x="0" y="0" width="448" height="528"></rect><rect x="4" y="216" width="80" height="32" class="solid r" rx="4"></rect><text x="42" y="236" >#0xc</text><rect x="4" y="472" width="140" height="32" class="solid r" rx="4"></rect><text x="42" y="492" >#0xfffffffb</text><text x="146" y="28" >BEFORE</text><text x="202" y="28" >`BitwiseNand`</text><line x1="88" y1="38" x2="344" y2="38" class="solid"></line><line x1="88" y1="42" x2="344" y2="42" class="solid"></line><line x1="28" y1="64" x2="28" y2="84" class="solid"></line><polygon points="24,84 32,84 28,96" class="filled"></polygon><text x="18" y="124" >0x7</text><text x="66" y="124" >0</text><text x="98" y="124" >0</text><text x="130" y="124" >0</text><text x="162" y="124" >0</text><text x="194" y="124" >0</text><text x="226" y="124" >0</text><text x="258" y="124" >0</text><text x="290" y="124" >0</text><text x="322" y="124" >0</text><text x="354" y="124" >0</text><text x="386" y="124" >0</text><text x="18" y="156" >#0</text><text x="58" y="156" >#1</text><text x="90" y="156" >#2</text><text x="122" y="156" >#3</text><text x="154" y="156" >#4</text><text x="186" y="156" >#5</text><text x="218" y="156" >#6</text><text x="250" y="156" >#7</text><text x="282" y="156" >#8</text><text x="314" y="156" >#9</text><text x="346" y="156" >#10</text><text x="378" y="156" >#11</text><text x="418" y="124" >...</text><text x="418" y="156" >...</text><text x="2" y="204" >register</text><text x="130" y="204" >deref</text><text x="178" y="204" >stack</text><text x="154" y="284" >AFTER</text><text x="202" y="284" >`BitwiseNand`</text><line x1="88" y1="294" x2="344" y2="294" class="solid"></line><line x1="88" y1="298" x2="344" y2="298" class="solid"></line><line x1="28" y1="320" x2="28" y2="340" class="solid"></line><polygon points="24,340 32,340 28,352" class="filled"></polygon><text x="18" y="380" >0x7</text><text x="66" y="380" >0</text><text x="98" y="380" >0</text><text x="130" y="380" >0</text><text x="162" y="380" >0</text><text x="194" y="380" >0</text><text x="226" y="380" >0</text><text x="258" y="380" >0</text><text x="290" y="380" >0</text><text x="322" y="380" >0</text><text x="354" y="380" >0</text><text x="386" y="380" >0</text><text x="18" y="412" >#0</text><text x="58" y="412" >#1</text><text x="90" y="412" >#2</text><text x="122" y="412" >#3</text><text x="154" y="412" >#4</text><text x="186" y="412" >#5</text><text x="218" y="412" >#6</text><text x="250" y="412" >#7</text><text x="282" y="412" >#8</text><text x="314" y="412" >#9</text><text x="346" y="412" >#10</text><text x="378" y="412" >#11</text><text x="418" y="380" >...</text><text x="418" y="412" >...</text><text x="2" y="460" >register</text><text x="194" y="460" >deref</text><text x="242" y="460" >stack</text><g><line x1="4" y1="104" x2="404" y2="104" class="solid"></line><line x1="4" y1="104" x2="4" y2="136" class="solid"></line><line x1="52" y1="104" x2="52" y2="136" class="solid"></line><line x1="84" y1="104" x2="84" y2="136" class="solid"></line><line x1="116" y1="104" x2="116" y2="136" class="solid"></line><line x1="148" y1="104" x2="148" y2="136" class="solid"></line><line x1="180" y1="104" x2="180" y2="136" class="solid"></line><line x1="212" y1="104" x2="212" y2="136" class="solid"></line><line x1="244" y1="104" x2="244" y2="136" class="solid"></line><line x1="276" y1="104" x2="276" y2="136" class="solid"></line><line x1="308" y1="104" x2="308" y2="136" class="solid"></line><line x1="340" y1="104" x2="340" y2="136" class="solid"></line><line x1="372" y1="104" x2="372" y2="136" class="solid"></line><line x1="404" y1="104" x2="404" y2="136" class="solid"></line><line x1="4" y1="136" x2="404" y2="136" class="solid"></line></g><g><path d="M 152,216 A 4,4 0,0,0 148,220" class="nofill"></path><line x1="148" y1="220" x2="148" y2="244" class="solid"></line><line x1="152" y1="216" x2="160" y2="216" class="solid"></line><path d="M 148,244 A 4,4 0,0,0 152,248" class="nofill"></path><line x1="152" y1="248" x2="160" y2="248" class="solid"></line></g><g><line x1="4" y1="360" x2="404" y2="360" class="solid"></line><line x1="4" y1="360" x2="4" y2="392" class="solid"></line><line x1="52" y1="360" x2="52" y2="392" class="solid"></line><line x1="84" y1="360" x2="84" y2="392" class="solid"></line><line x1="116" y1="360" x2="116" y2="392" class="solid"></line><line x1="148" y1="360" x2="148" y2="392" class="solid"></line><line x1="180" y1="360" x2="180" y2="392" class="solid"></line><line x1="212" y1="360" x2="212" y2="392" class="solid"></line><line x1="244" y1="360" x2="244" y2="392" class="solid"></line><line x1="276" y1="360" x2="276" y2="392" class="solid"></line><line x1="308" y1="360" x2="308" y2="392" class="solid"></line><line x1="340" y1="360" x2="340" y2="392" class="solid"></line><line x1="372" y1="360" x2="372" y2="392" class="solid"></line><line x1="404" y1="360" x2="404" y2="392" class="solid"></line><line x1="4" y1="392" x2="404" y2="392" class="solid"></line></g><g><path d="M 208,472 A 4,4 0,0,0 204,476" class="nofill"></path><line x1="204" y1="476" x2="204" y2="500" class="solid"></line><line x1="208" y1="472" x2="216" y2="472" class="solid"></line><path d="M 204,500 A 4,4 0,0,0 208,504" class="nofill"></path><line x1="208" y1="504" x2="216" y2="504" class="solid"></line></g></svg>