<svg xmlns="http://www.w3.org/2000/svg" width="600" height="192"><style>line, path, circle, rect, polygon{stroke:black;stroke-width:2;stroke-opacity:1;fill-opacity:1;stroke-linecap:round;stroke-linejoin:miter;}text{font-family:Iosevka Fixed, monospace;font-size:14px;}rect.backdrop{stroke:none;fill:white;}.broken{stroke-dasharray:8;}.filled{fill:black;}.bg_filled{fill:white;}.nofill{fill:white;}.end_marked_arrow{marker-end:url(#arrow);}.start_marked_arrow{marker-start:url(#arrow);}.end_marked_diamond{marker-end:url(#diamond);}.start_marked_diamond{marker-start:url(#diamond);}.end_marked_circle{marker-end:url(#circle);}.start_marked_circle{marker-start:url(#circle);}.end_marked_open_circle{marker-end:url(#open_circle);}.start_marked_open_circle{marker-start:url(#open_circle);}.end_marked_big_open_circle{marker-end:url(#big_open_circle);}.start_marked_big_open_circle{marker-start:url(#big_open_circle);}<!--separator--></style><defs><marker id="arrow" viewBox="-2 -2 8 8" refX="4" refY="2" markerWidth="7" markerHeight="7" orient="auto-start-reverse"><polygon points="0,0 0,4 4,2 0,0"></polygon></marker><marker id="diamond" viewBox="-2 -2 8 8" refX="4" refY="2" markerWidth="7" markerHeight="7" orient="auto-start-reverse"><polygon points="0,2 2,0 4,2 2,4 0,2"></polygon></marker><marker id="circle" viewBox="0 0 8 8" refX="4" refY="4" markerWidth="7" markerHeight="7" orient="auto-start-reverse"><circle cx="4" cy="4" r="2" class="filled"></circle></marker><marker id="open_circle" viewBox="0 0 8 8" refX="4" refY="4" markerWidth="7" markerHeight="7" orient="auto-start-reverse"><circle cx="4" cy="4" r="2" class="bg_filled"></circle></marker><marker id="big_open_circle" viewBox="0 0 8 8" refX="4" refY="4" markerWidth="7" markerHeight="7" orient="auto-start-reverse"><circle cx="4" cy="4" r="3" class="bg_filled"></circle></marker></defs><rect class="backdrop" x="0" y="0" width="600" height="192"></rect><text x="194" y="28" >The</text><text x="226" y="28" >Assembly</text><text x="298" y="28" >Memory</text><text x="354" y="28" >Layout</text><line x1="176" y1="38" x2="416" y2="38" class="solid"></line><line x1="176" y1="42" x2="416" y2="42" class="solid"></line><text x="58" y="76" >SP</text><text x="130" y="76" >TMP</text><text x="162" y="76" >FP</text><text x="210" y="76" >FP</text><line x1="224" y1="80" x2="232" y2="80" class="solid"></line><text x="234" y="76" >STACK</text><text x="314" y="76" >A</text><text x="346" y="76" >B</text><text x="378" y="76" >C</text><text x="410" y="76" >D</text><text x="442" y="76" >E</text><text x="474" y="76" >F</text><text x="10" y="140" >FP</text><line x1="24" y1="144" x2="32" y2="144" class="solid"></line><text x="34" y="140" >STACK+SIZE</text><text x="138" y="140" >?</text><text x="162" y="140" >SP</text><text x="242" y="140" >9</text><text x="314" y="140" >0</text><text x="346" y="140" >0</text><text x="378" y="140" >0</text><text x="410" y="140" >0</text><text x="442" y="140" >0</text><text x="474" y="140" >0</text><text x="506" y="140" >0</text><text x="538" y="140" >0</text><text x="10" y="172" >#0</text><text x="130" y="172" >#1</text><text x="162" y="172" >#2</text><text x="234" y="172" >#3</text><text x="306" y="172" >#4</text><text x="338" y="172" >#5</text><text x="370" y="172" >#6</text><text x="402" y="172" >#7</text><text x="434" y="172" >#8</text><text x="466" y="172" >#9</text><text x="498" y="172" >#10</text><text x="530" y="172" >#11</text><text x="570" y="140" >...</text><text x="570" y="172" >...</text><g><line x1="68" y1="80" x2="68" y2="100" class="solid"></line><polygon points="64,100 72,100 68,112" class="filled"></polygon></g><g><line x1="140" y1="80" x2="140" y2="100" class="solid"></line><polygon points="136,100 144,100 140,112" class="filled"></polygon></g><g><line x1="172" y1="80" x2="172" y2="100" class="solid"></line><polygon points="168,100 176,100 172,112" class="filled"></polygon></g><g><line x1="244" y1="80" x2="244" y2="100" class="solid"></line><polygon points="240,100 248,100 244,112" class="filled"></polygon></g><g><line x1="316" y1="80" x2="316" y2="100" class="solid"></line><polygon points="312,100 320,100 316,112" class="filled"></polygon></g><g><line x1="348" y1="80" x2="348" y2="100" class="solid"></line><polygon points="344,100 352,100 348,112" class="filled"></polygon></g><g><line x1="380" y1="80" x2="380" y2="100" class="solid"></line><polygon points="376,100 384,100 380,112" class="filled"></polygon></g><g><line x1="412" y1="80" x2="412" y2="100" class="solid"></line><polygon points="408,100 416,100 412,112" class="filled"></polygon></g><g><line x1="444" y1="80" x2="444" y2="100" class="solid"></line><polygon points="440,100 448,100 444,112" class="filled"></polygon></g><g><line x1="476" y1="80" x2="476" y2="100" class="solid"></line><polygon points="472,100 480,100 476,112" class="filled"></polygon></g><g><line x1="4" y1="120" x2="556" y2="120" class="solid"></line><line x1="4" y1="120" x2="4" y2="152" class="solid"></line><line x1="124" y1="120" x2="124" y2="152" class="solid"></line><line x1="156" y1="120" x2="156" y2="152" class="solid"></line><line x1="188" y1="120" x2="188" y2="152" class="solid"></line><line x1="300" y1="120" x2="300" y2="152" class="solid"></line><line x1="332" y1="120" x2="332" y2="152" class="solid"></line><line x1="364" y1="120" x2="364" y2="152" class="solid"></line><line x1="396" y1="120" x2="396" y2="152" class="solid"></line><line x1="428" y1="120" x2="428" y2="152" class="solid"></line><line x1="460" y1="120" x2="460" y2="152" class="solid"></line><line x1="492" y1="120" x2="492" y2="152" class="solid"></line><line x1="524" y1="120" x2="524" y2="152" class="solid"></line><line x1="556" y1="120" x2="556" y2="152" class="solid"></line><line x1="4" y1="152" x2="556" y2="152" class="solid"></line></g></svg>