<svg xmlns="http://www.w3.org/2000/svg" width="432" height="528"><style>line, path, circle, rect, polygon{stroke:black;stroke-width:2;stroke-opacity:1;fill-opacity:1;stroke-linecap:round;stroke-linejoin:miter;}text{font-family:Iosevka Fixed, monospace;font-size:14px;}rect.backdrop{stroke:none;fill:white;}.broken{stroke-dasharray:8;}.filled{fill:black;}.bg_filled{fill:white;}.nofill{fill:white;}.end_marked_arrow{marker-end:url(#arrow);}.start_marked_arrow{marker-start:url(#arrow);}.end_marked_diamond{marker-end:url(#diamond);}.start_marked_diamond{marker-start:url(#diamond);}.end_marked_circle{marker-end:url(#circle);}.start_marked_circle{marker-start:url(#circle);}.end_marked_open_circle{marker-end:url(#open_circle);}.start_marked_open_circle{marker-start:url(#open_circle);}.end_marked_big_open_circle{marker-end:url(#big_open_circle);}.start_marked_big_open_circle{marker-start:url(#big_open_circle);}<!--separator-->.r{ 
    fill: #a9cce3;
 }</style><defs><marker id="arrow" viewBox="-2 -2 8 8" refX="4" refY="2" markerWidth="7" markerHeight="7" orient="auto-start-reverse"><polygon points="0,0 0,4 4,2 0,0"></polygon></marker><marker id="diamond" viewBox="-2 -2 8 8" refX="4" refY="2" markerWidth="7" markerHeight="7" orient="auto-start-reverse"><polygon points="0,2 2,0 4,2 2,4 0,2"></polygon></marker><marker id="circle" viewBox="0 0 8 8" refX="4" refY="4" markerWidth="7" markerHeight="7" orient="auto-start-reverse"><circle cx="4" cy="4" r="2" class="filled"></circle></marker><marker id="open_circle" viewBox="0 0 8 8" refX="4" refY="4" markerWidth="7" markerHeight="7" orient="auto-start-reverse"><circle cx="4" cy="4" r="2" class="bg_filled"></circle></marker><marker id="big_open_circle" viewBox="0 0 8 8" refX="4" refY="4" markerWidth="7" markerHeight="7" orient="auto-start-reverse"><circle cx="4" cy="4" r="3" class="bg_filled"></circle></marker></defs><rect class="backdrop" x="0" y="0" width="432" height="528"></rect><rect x="4" y="216" width="56" height="32" class="solid nofill r" rx="4"></rect><text x="50" y="236" >5</text><rect x="4" y="472" width="56" height="32" class="solid nofill r" rx="4"></rect><text x="50" y="492" >3</text><text x="130" y="28" >BEFORE</text><text x="186" y="28" >`Subtract`</text><line x1="64" y1="38" x2="320" y2="38" class="solid"></line><line x1="64" y1="42" x2="320" y2="42" class="solid"></line><text x="18" y="124" >2</text><text x="50" y="124" >0</text><text x="82" y="124" >0</text><text x="114" y="124" >0</text><text x="146" y="124" >0</text><text x="178" y="124" >0</text><text x="210" y="124" >0</text><text x="242" y="124" >0</text><text x="274" y="124" >0</text><text x="306" y="124" >0</text><text x="338" y="124" >0</text><text x="370" y="124" >0</text><text x="10" y="156" >#0</text><text x="42" y="156" >#1</text><text x="74" y="156" >#2</text><text x="106" y="156" >#3</text><text x="138" y="156" >#4</text><text x="170" y="156" >#5</text><text x="202" y="156" >#6</text><text x="234" y="156" >#7</text><text x="266" y="156" >#8</text><text x="298" y="156" >#9</text><text x="330" y="156" >#10</text><text x="362" y="156" >#11</text><text x="402" y="124" >...</text><text x="402" y="156" >...</text><text x="2" y="204" >register</text><text x="130" y="204" >deref</text><text x="178" y="204" >stack</text><text x="130" y="284" >AFTER</text><text x="178" y="284" >`Subtract`</text><line x1="64" y1="294" x2="320" y2="294" class="solid"></line><line x1="64" y1="298" x2="320" y2="298" class="solid"></line><text x="18" y="380" >2</text><text x="50" y="380" >0</text><text x="82" y="380" >0</text><text x="114" y="380" >0</text><text x="146" y="380" >0</text><text x="178" y="380" >0</text><text x="210" y="380" >0</text><text x="242" y="380" >0</text><text x="274" y="380" >0</text><text x="306" y="380" >0</text><text x="338" y="380" >0</text><text x="370" y="380" >0</text><text x="10" y="412" >#0</text><text x="42" y="412" >#1</text><text x="74" y="412" >#2</text><text x="106" y="412" >#3</text><text x="138" y="412" >#4</text><text x="170" y="412" >#5</text><text x="202" y="412" >#6</text><text x="234" y="412" >#7</text><text x="266" y="412" >#8</text><text x="298" y="412" >#9</text><text x="330" y="412" >#10</text><text x="362" y="412" >#11</text><text x="402" y="380" >...</text><text x="402" y="412" >...</text><text x="2" y="460" >register</text><text x="130" y="460" >deref</text><text x="178" y="460" >stack</text><g><line x1="20" y1="64" x2="20" y2="84" class="solid"></line><polygon points="16,84 24,84 20,96" class="filled"></polygon></g><g><line x1="4" y1="104" x2="388" y2="104" class="solid"></line><line x1="4" y1="104" x2="4" y2="136" class="solid"></line><line x1="36" y1="104" x2="36" y2="136" class="solid"></line><line x1="68" y1="104" x2="68" y2="136" class="solid"></line><line x1="100" y1="104" x2="100" y2="136" class="solid"></line><line x1="132" y1="104" x2="132" y2="136" class="solid"></line><line x1="164" y1="104" x2="164" y2="136" class="solid"></line><line x1="196" y1="104" x2="196" y2="136" class="solid"></line><line x1="228" y1="104" x2="228" y2="136" class="solid"></line><line x1="260" y1="104" x2="260" y2="136" class="solid"></line><line x1="292" y1="104" x2="292" y2="136" class="solid"></line><line x1="324" y1="104" x2="324" y2="136" class="solid"></line><line x1="356" y1="104" x2="356" y2="136" class="solid"></line><line x1="388" y1="104" x2="388" y2="136" class="solid"></line><line x1="4" y1="136" x2="388" y2="136" class="solid"></line></g><g><path d="M 136,216 A 4,4 0,0,0 132,220" class="nofill"></path><line x1="132" y1="220" x2="132" y2="244" class="solid"></line><line x1="136" y1="216" x2="144" y2="216" class="solid"></line><path d="M 132,244 A 4,4 0,0,0 136,248" class="nofill"></path><line x1="136" y1="248" x2="144" y2="248" class="solid"></line></g><g><line x1="20" y1="320" x2="20" y2="340" class="solid"></line><polygon points="16,340 24,340 20,352" class="filled"></polygon></g><g><line x1="4" y1="360" x2="388" y2="360" class="solid"></line><line x1="4" y1="360" x2="4" y2="392" class="solid"></line><line x1="36" y1="360" x2="36" y2="392" class="solid"></line><line x1="68" y1="360" x2="68" y2="392" class="solid"></line><line x1="100" y1="360" x2="100" y2="392" class="solid"></line><line x1="132" y1="360" x2="132" y2="392" class="solid"></line><line x1="164" y1="360" x2="164" y2="392" class="solid"></line><line x1="196" y1="360" x2="196" y2="392" class="solid"></line><line x1="228" y1="360" x2="228" y2="392" class="solid"></line><line x1="260" y1="360" x2="260" y2="392" class="solid"></line><line x1="292" y1="360" x2="292" y2="392" class="solid"></line><line x1="324" y1="360" x2="324" y2="392" class="solid"></line><line x1="356" y1="360" x2="356" y2="392" class="solid"></line><line x1="388" y1="360" x2="388" y2="392" class="solid"></line><line x1="4" y1="392" x2="388" y2="392" class="solid"></line></g><g><path d="M 136,472 A 4,4 0,0,0 132,476" class="nofill"></path><line x1="132" y1="476" x2="132" y2="500" class="solid"></line><line x1="136" y1="472" x2="144" y2="472" class="solid"></line><path d="M 132,500 A 4,4 0,0,0 136,504" class="nofill"></path><line x1="136" y1="504" x2="144" y2="504" class="solid"></line></g></svg>